<svg width="39" height="38" viewBox="0 0 39 38" fill="none" xmlns="http://www.w3.org/2000/svg">
<path d="M19.0528 0H19.6837C24.7662 0.201133 28.6819 3.88238 29.4123 8.88844C29.4128 8.89318 29.4152 8.89754 29.4189 8.90069C29.4226 8.90384 29.4273 8.90556 29.4323 8.90551C30.8301 8.90699 32.2294 8.90699 33.6301 8.90551C34.4072 8.90477 35.0314 9.11258 35.3089 9.87258C35.3792 10.066 35.4143 10.3664 35.4143 10.7736C35.4128 15.2712 35.4128 19.7692 35.4143 24.2673C35.4143 24.6631 35.3797 24.957 35.3104 25.149C34.8391 26.4568 33.0104 26.4286 32.5413 25.1349C32.4765 24.9558 32.4441 24.7052 32.4441 24.3831C32.4451 20.2234 32.4453 16.0656 32.4448 11.9099C32.4448 11.9006 32.4411 11.8918 32.4344 11.8852C32.4277 11.8787 32.4187 11.875 32.4092 11.875H29.5117C29.5071 11.875 29.5026 11.8759 29.4984 11.8777C29.4941 11.8794 29.4903 11.882 29.487 11.8852C29.4838 11.8885 29.4812 11.8923 29.4795 11.8965C29.4777 11.9008 29.4768 11.9053 29.4768 11.9099C29.4753 13.2607 29.4756 14.61 29.4776 15.9578C29.4781 16.3501 29.4437 16.6421 29.3744 16.8336C28.9031 18.1443 27.0729 18.1175 26.6031 16.8209C26.5383 16.6423 26.5061 16.3927 26.5066 16.0721C26.5081 14.6827 26.5081 13.2953 26.5066 11.9099C26.5066 11.9053 26.5057 11.9008 26.5039 11.8965C26.5022 11.8923 26.4996 11.8885 26.4964 11.8852C26.4931 11.882 26.4893 11.8794 26.4851 11.8777C26.4808 11.8759 26.4763 11.875 26.4717 11.875H12.293C12.2837 11.875 12.2748 11.8787 12.2683 11.8852C12.2618 11.8918 12.2581 11.9006 12.2581 11.9099C12.2566 13.2607 12.2568 14.61 12.2588 15.9578C12.2593 16.3501 12.2249 16.6421 12.1557 16.8336C11.6844 18.1443 9.85413 18.1175 9.38433 16.8209C9.31951 16.6423 9.28735 16.3927 9.28784 16.0721C9.28933 14.6827 9.28933 13.2953 9.28784 11.9099C9.28784 11.9006 9.28417 11.8918 9.27763 11.8852C9.27108 11.8787 9.26221 11.875 9.25296 11.875H6.35694C6.3471 11.875 6.33766 11.8789 6.3307 11.8859C6.32374 11.8928 6.31983 11.9023 6.31983 11.9121V34.9956C6.31983 35.0051 6.32359 35.0141 6.33027 35.0208C6.33695 35.0275 6.34601 35.0312 6.35546 35.0312C11.4944 35.0308 16.6313 35.031 21.7662 35.032C22.4053 35.032 22.9062 35.1433 23.2551 35.648C23.9416 36.6411 23.3182 37.8308 22.1611 38H4.71968C3.66058 37.83 3.35034 37.1376 3.35034 36.175C3.35183 27.7091 3.35183 19.2432 3.35034 10.7773C3.35034 10.3661 3.38572 10.0638 3.45647 9.87035C3.73479 9.10887 4.35823 8.90477 5.13679 8.90551C6.52765 8.9065 7.90663 8.90674 9.27374 8.90625C9.29164 8.90598 9.30885 8.89949 9.3223 8.88794C9.33575 8.87639 9.34458 8.86052 9.34722 8.84316C9.72474 6.42957 10.745 4.41948 12.408 2.81289C14.2041 1.0784 16.5442 0.115781 19.0528 0ZM26.4005 8.87434C25.6583 4.80566 21.6839 2.1657 17.6152 3.19066C14.8632 3.88387 12.9097 6.12008 12.3612 8.85281C12.3599 8.85931 12.36 8.86602 12.3616 8.87245C12.3631 8.87889 12.3661 8.88489 12.3702 8.89001C12.3743 8.89513 12.3795 8.89924 12.3854 8.90205C12.3913 8.90486 12.3978 8.9063 12.4043 8.90625H26.3745C26.3784 8.90622 26.3823 8.90532 26.3858 8.90361C26.3894 8.90191 26.3925 8.89945 26.395 8.8964C26.3975 8.89335 26.3992 8.88979 26.4002 8.88598C26.4011 8.88217 26.4012 8.87819 26.4005 8.87434Z" fill="#A8A8B7"/>
<path d="M31.087 38H30.864C29.2195 37.7373 29.5057 36.2789 29.4909 35.075C29.4904 35.0473 29.4762 35.0332 29.4485 35.0327C28.847 35.0268 28.0211 35.1136 27.5081 34.9392C26.2614 34.5162 26.161 32.6444 27.4747 32.1597C27.9802 31.9734 28.8567 32.0632 29.4477 32.0618C29.4765 32.0618 29.4911 32.0474 29.4916 32.0187C29.4961 31.4584 29.4121 30.6709 29.5555 30.1722C29.9466 28.8125 31.9018 28.7167 32.3761 30.0727C32.5494 30.5677 32.4661 31.4287 32.4676 32.0165C32.4676 32.0447 32.4817 32.059 32.51 32.0595C33.0898 32.0699 33.8853 31.9772 34.3938 32.1397C35.758 32.5761 35.787 34.4657 34.4347 34.94C33.918 35.1211 33.0921 35.0275 32.5114 35.0327C32.4832 35.0332 32.4691 35.0473 32.4691 35.075C32.4557 36.2922 32.7345 37.7439 31.087 38Z" fill="#A8A8B7"/>
</svg>
