<svg width="33" height="30" viewBox="0 0 33 30" fill="none" xmlns="http://www.w3.org/2000/svg">
<path d="M31 15C31 22.0046 24.6918 28 16.5 28C8.30822 28 2 22.0046 2 15C2 7.99541 8.30822 2 16.5 2C24.6918 2 31 7.99541 31 15Z" fill="black"/>
<path d="M31 15C31 22.0046 24.6918 28 16.5 28C8.30822 28 2 22.0046 2 15C2 7.99541 8.30822 2 16.5 2C24.6918 2 31 7.99541 31 15Z" stroke="white" stroke-width="4"/>
<path d="M31 15C31 22.0046 24.6918 28 16.5 28C8.30822 28 2 22.0046 2 15C2 7.99541 8.30822 2 16.5 2C24.6918 2 31 7.99541 31 15Z" stroke="black" stroke-opacity="0.2" stroke-width="4"/>
</svg>
