<svg
    xmlns="http://www.w3.org/2000/svg"
    width="17"
    height="27"
    viewBox="0 0 17 27"
    fill="none"
>
    <path
        d="M4.7143 9.88129C4.68468 8.73464 4.69185 7.59014 4.7358 6.4478C4.85977 3.25383 7.08055 0.866266 10.65 0.459515C10.9514 0.425081 11.4282 0.405927 12.0803 0.402053C13.2097 0.396027 14.3396 0.397534 15.4699 0.406573C16.0317 0.411092 16.112 0.729391 16.1134 1.17746C16.1177 3.10792 16.1177 4.34948 16.1134 4.90214C16.1098 5.40251 15.7394 5.48063 15.2499 5.48128C14.3881 5.483 13.4123 5.49677 12.3226 5.5226C11.0671 5.55294 10.9194 6.25733 10.9073 7.23354C10.8963 8.09869 10.8965 8.96341 10.908 9.8277C10.9082 9.83558 10.9117 9.84306 10.9179 9.84851C10.9241 9.85396 10.9324 9.85693 10.9409 9.85676C12.3312 9.84514 13.7214 9.84643 15.1116 9.86063C15.5702 9.8658 15.9658 9.95812 15.968 10.4269C15.9737 11.8507 15.9754 13.2748 15.973 14.699C15.9723 15.2175 15.5229 15.2769 15.0607 15.2782C13.6877 15.2829 12.3195 15.2825 10.956 15.2769C10.9461 15.2769 10.9366 15.2804 10.9296 15.2867C10.9226 15.293 10.9187 15.3015 10.9187 15.3105C10.9202 18.849 10.9202 22.3696 10.9187 25.8724C10.918 26.3108 10.8901 26.795 10.2379 26.7976C8.63798 26.8045 7.03731 26.8058 5.43593 26.8015C4.94481 26.7998 4.69949 26.5738 4.69997 26.1236C4.70045 22.5523 4.70212 18.962 4.70499 15.3524C4.70499 15.3154 4.68444 15.2969 4.64336 15.2969C3.42751 15.2973 2.19924 15.2967 0.958544 15.295C0.41822 15.2943 0.315745 14.9941 0.315028 14.557C0.313117 13.2055 0.31455 11.8541 0.319327 10.503C0.321477 10.0201 0.651119 9.9239 1.13483 9.92326C2.31151 9.92154 3.48985 9.92132 4.66987 9.92261C4.67583 9.92262 4.68173 9.92154 4.68721 9.91945C4.6927 9.91735 4.69766 9.91429 4.70181 9.91044C4.70595 9.90658 4.70919 9.90201 4.71134 9.89701C4.71349 9.892 4.71449 9.88666 4.7143 9.88129Z"
        fill="white"
    />
</svg>