<svg
            xmlns="http://www.w3.org/2000/svg"
            width="29"
            height="29"
            viewBox="0 0 29 29"
            fill="none"
          >
            <path
              d="M7.63907 0.398438H20.7768C22.9218 0.474822 24.7187 1.25409 26.1674 2.73623C27.5335 4.13373 28.2672 5.98513 28.3201 7.94835V21.0861C28.2171 24.7002 25.7752 27.6307 22.2602 28.436C21.8823 28.5223 21.3857 28.5776 20.7702 28.6018H7.66001C3.50056 28.5038 0.226869 25.2444 0.116699 21.0795V7.92797C0.201897 5.58283 1.10731 3.67543 2.83293 2.20577C4.18251 1.0567 5.78455 0.454257 7.63907 0.398438ZM7.14221 2.09174C4.06297 2.44373 1.77365 4.96111 1.76979 8.08276C1.76759 10.0012 1.76777 14.1928 1.77034 20.6575C1.77034 20.9704 1.7775 21.2238 1.79183 21.4177C2.02043 24.5487 4.67001 26.9405 7.75971 26.9482C9.45669 26.9522 13.6235 26.952 20.2601 26.9476C20.7588 26.9473 21.1257 26.9337 21.3607 26.9069C24.1821 26.5846 26.3266 24.3515 26.6295 21.5488C26.656 21.3057 26.669 20.9392 26.6687 20.4493C26.6679 16.4567 26.6672 12.4642 26.6665 8.47166C26.6665 7.97149 26.6532 7.60499 26.6268 7.37217C26.3128 4.58323 24.1667 2.48945 21.3992 2.09505C21.1101 2.05373 20.7592 2.05043 20.4799 2.05043C16.4007 2.05153 12.3215 2.05135 8.24225 2.04988C7.75494 2.04988 7.38825 2.06383 7.14221 2.09174Z"
              fill="white"
            />
            <path
              d="M24.3832 6.32831C24.3832 6.93007 24.1441 7.50719 23.7186 7.9327C23.2931 8.3582 22.716 8.59725 22.1142 8.59725C21.5125 8.59725 20.9354 8.3582 20.5099 7.9327C20.0844 7.50719 19.8453 6.93007 19.8453 6.32831C19.8453 5.72655 20.0844 5.14944 20.5099 4.72393C20.9354 4.29842 21.5125 4.05937 22.1142 4.05937C22.716 4.05937 23.2931 4.29842 23.7186 4.72393C24.1441 5.14944 24.3832 5.72655 24.3832 6.32831ZM22.7301 6.32886C22.7301 6.16553 22.6652 6.00889 22.5497 5.89339C22.4342 5.7779 22.2776 5.71302 22.1142 5.71302C21.9509 5.71302 21.7943 5.7779 21.6788 5.89339C21.5633 6.00889 21.4984 6.16553 21.4984 6.32886C21.4984 6.4922 21.5633 6.64884 21.6788 6.76433C21.7943 6.87983 21.9509 6.94471 22.1142 6.94471C22.2776 6.94471 22.4342 6.87983 22.5497 6.76433C22.6652 6.64884 22.7301 6.4922 22.7301 6.32886Z"
              fill="white"
            />
            <path
              d="M21.9209 14.5001C21.9209 16.543 21.1094 18.5021 19.6649 19.9466C18.2204 21.3911 16.2612 22.2026 14.2184 22.2026C12.1756 22.2026 10.2164 21.3911 8.77191 19.9466C7.32741 18.5021 6.5159 16.543 6.5159 14.5001C6.5159 12.4573 7.32741 10.4981 8.77191 9.05364C10.2164 7.60914 12.1756 6.79763 14.2184 6.79763C16.2612 6.79763 18.2204 7.60914 19.6649 9.05364C21.1094 10.4981 21.9209 12.4573 21.9209 14.5001ZM20.2684 14.5001C20.2684 12.8956 19.631 11.3568 18.4964 10.2222C17.3618 9.08758 15.8229 8.45018 14.2184 8.45018C12.6138 8.45018 11.075 9.08758 9.94043 10.2222C8.80584 11.3568 8.16844 12.8956 8.16844 14.5001C8.16844 16.1047 8.80584 17.6435 9.94043 18.7781C11.075 19.9127 12.6138 20.5501 14.2184 20.5501C15.8229 20.5501 17.3618 19.9127 18.4964 18.7781C19.631 17.6435 20.2684 16.1047 20.2684 14.5001Z"
              fill="white"
            />
          </svg>