<svg width="38" height="38" viewBox="0 0 38 38" fill="none" xmlns="http://www.w3.org/2000/svg">
<ellipse cx="18.9143" cy="19" rx="18.5" ry="19" fill="#5F70C6"/>
<path d="M18.9143 18.9964C22.5371 18.9964 25.4739 15.9547 25.4739 12.2025C25.4739 8.4504 22.5371 5.40869 18.9143 5.40869C15.2916 5.40869 12.3547 8.4504 12.3547 12.2025C12.3547 15.9547 15.2916 18.9964 18.9143 18.9964Z" fill="white"/>
<path d="M17.8708 20.2095C23.5262 19.7404 28.635 23.1406 30.5118 28.6995C31.0784 30.3769 30.1696 32.1028 28.5085 32.507C28.2682 32.5652 27.8952 32.5944 27.3893 32.5944C21.5956 32.5936 15.8018 32.5921 10.0081 32.5901C8.37625 32.5895 7.04617 31.2338 7.1493 29.52C7.16726 29.2263 7.24773 28.8761 7.3907 28.4695C9.02664 23.8252 13.1264 20.6027 17.8708 20.2095Z" fill="white"/>
</svg>
